<svg width="1920" height="506" viewBox="0 0 1920 506" xmlns="http://www.w3.org/2000/svg" xmlns:xlink="http://www.w3.org/1999/xlink"><title>homepage guts</title><defs><path id="a" d="M0 0h1920v505H0z"/><linearGradient x1="115.165%" y1="159.517%" x2="6.613%" y2="-32.941%" id="c"><stop stop-color="#01D1C1" offset="0%"/><stop stop-color="#00D1C1" stop-opacity="0" offset="100%"/></linearGradient><linearGradient x1="43.599%" y1="18.603%" x2="43.599%" y2="121.868%" id="d"><stop stop-color="#066EE2" offset="0%"/><stop stop-color="#066EE2" stop-opacity="0" offset="100%"/></linearGradient><path id="b" d="M0 1h1920v505H0z"/><path id="f" d="M806.41 541.41H.328V.814H806.41V541.41z"/></defs><g fill="none" fill-rule="evenodd"><use fill="#D8D8D8" xlink:href="#a"/><mask id="e" fill="#fff"><use xlink:href="#b"/></mask><use fill="#63D9EA" xlink:href="#b"/><use fill="url(#c)" xlink:href="#b"/><use fill="url(#d)" xlink:href="#b"/><path d="M367.446 215.316a3.183 3.183 0 1 0 6.367 0 3.183 3.183 0 0 0-6.367 0M1475.443 392.79a1.061 1.061 0 1 0 0-2.122 1.061 1.061 0 0 0 0 2.122M379.05 226.908a1.061 1.061 0 1 0 0-2.123 1.061 1.061 0 0 0 0 2.123" fill="#FFF" opacity=".261" mask="url(#e)"/><path d="M1590.096 266.696c0-2.344 1.9-4.244 4.244-4.244a4.244 4.244 0 0 1-4.244-4.244c0 2.344-1.9 4.244-4.244 4.244 2.344 0 4.244 1.9 4.244 4.244" fill="#BAF4FD" opacity=".261" mask="url(#e)"/><path d="M1550.062 352.424a3.184 3.184 0 1 0 6.368 0 3.184 3.184 0 0 0-6.368 0M1054.28 404.515a3.183 3.183 0 1 0 6.367 0 3.183 3.183 0 0 0-6.367 0" fill="#FFF" opacity=".261" mask="url(#e)"/><path d="M720.957 171.903a3.184 3.184 0 1 0 6.367 0 3.184 3.184 0 0 0-6.367 0M1341.754 283.587c0-4.688 3.8-8.488 8.489-8.488a8.488 8.488 0 0 1-8.489-8.489c0 4.689-3.8 8.489-8.489 8.489 4.688 0 8.489 3.8 8.489 8.488M499.69 263.028c0-4.688 3.8-8.489 8.488-8.489a8.488 8.488 0 0 1-8.488-8.488c0 4.688-3.801 8.488-8.49 8.488 4.689 0 8.49 3.801 8.49 8.49M426.418 398.803a7.074 7.074 0 1 0 14.148 0 7.074 7.074 0 0 0-14.148 0" fill="#01D1C1" opacity=".261" mask="url(#e)"/><path d="M337.855 105.507a7.073 7.073 0 0 1 7.073-7.073 7.074 7.074 0 0 1-7.073-7.075 7.075 7.075 0 0 1-7.074 7.075 7.074 7.074 0 0 1 7.074 7.073" fill="#7EF2E9" opacity=".261" mask="url(#e)"/><path d="M1550.31 203.107h-7.85a2.74 2.74 0 0 1 0-5.476h-.19a8.52 8.52 0 0 0 0-17.038h-53.243a8.517 8.517 0 0 0-8.518 8.518 8.518 8.518 0 0 0 8.518 8.52h1.293a2.737 2.737 0 1 1 0 5.476h-33.368c-5.474 0-9.911 4.222-9.911 9.431 0 5.209 4.437 9.433 9.911 9.433h93.358c5.474 0 9.912-4.224 9.912-9.433s-4.438-9.431-9.912-9.431" fill="#FFF" opacity=".1" mask="url(#e)"/><path d="M558.494 306.75a2.83 2.83 0 1 1-5.658 0 2.83 2.83 0 0 1 5.658 0M562.737 300.993a1.415 1.415 0 1 1-2.83 0 1.415 1.415 0 0 1 2.83 0" fill="#0C7F99" opacity=".261" mask="url(#e)"/><path d="M753.379 356.911a1.061 1.061 0 1 0 0-2.122 1.061 1.061 0 0 0 0 2.122" fill="#63D9EA" opacity=".261" mask="url(#e)"/><path d="M1056.403 370.749a1.061 1.061 0 1 0 0-2.123 1.061 1.061 0 0 0 0 2.123" fill="#144F44" opacity=".261" mask="url(#e)"/><path d="M443.067 388.784a1.061 1.061 0 1 0 0-2.122 1.061 1.061 0 0 0 0 2.122" fill="#63D9EA" opacity=".261" mask="url(#e)"/><path d="M628.707 339.214a1.061 1.061 0 1 0 0-2.122 1.061 1.061 0 0 0 0 2.122" fill="#FFF" opacity=".261" mask="url(#e)"/><g opacity=".9" mask="url(#e)"><path fill="#39C2DB" d="M-105.847 895.058h1112.258l-575.044-634.26z"/><path d="M496.768 332.972c-10.55 0-10.55 16.159-21.097 16.159-10.55 0-10.55-16.16-21.099-16.16-10.547 0-10.547 16.16-21.094 16.16-10.548 0-10.548-16.16-21.094-16.16-10.543 0-10.543 16.16-21.087 16.16-10.546 0-10.546-16.16-21.093-16.16l61.13-72.172 65.434 72.173z" fill="#8EEDFC"/><path fill="#60DAEB" d="M697.066 688.453L122.022 54.193 68.944 116.86-116.609-87.802l-537.214 634.26h358.901l-120.27 141.995z"/><g transform="translate(-758 -52.35)"><mask id="g" fill="#fff"><use xlink:href="#f"/></mask><path fill="#11ACCD" mask="url(#g)" d="M-305.848 635.073H806.41L231.364.813z"/></g><path fill="#00ADCE" d="M2293.77 709.778L1718.726 75.52l-106.342 125.55-41.394-45.655-537.214 634.259h1112.26l-72.436-79.895z"/><path d="M1782.863 146.27c-10.34 0-10.34 15.841-20.682 15.841-10.342 0-10.342-15.84-20.682-15.84-10.34 0-10.34 15.84-20.68 15.84s-10.34-15.84-20.677-15.84c-10.336 0-10.336 15.84-20.673 15.84-10.338 0-10.338-15.84-20.676-15.84l59.925-70.753 64.145 70.753z" fill="#A1E5EC"/><path fill="#1FB5D2" d="M1490.838 582.723h1112.258l-575.044-634.26z"/><path d="M2663.188 694.143l-10.334-3.833h12.371l-2.037 3.833zm1075.6 71.508l-26.325-44.087-12.799 24.065-23.319-39.055-19.007 35.732-13.05-18.06-7.7 14.477-13.23-22.162-7.687 14.45-17.2-28.81-20.002 37.6-17.539-29.374-15.07 28.33-21.825-36.555-11.772 22.13-23.764-39.802-23.179 43.572-14.467-21.528-14.159 26.618-23.09-38.675-17.343 32.602-20.443-32.602-14.675 27.59-22.435-37.577-20.657 38.834-12.635-21.162L3289.032 733l-21.8-30.798-19.75 37.127-17.256-28.902-10.298 19.357-19.288-32.305-20.657 38.833-12.636-21.16-13.063 24.56-19.537-23.857-7.55 14.196-21.637-36.238-18.8 35.34-13.579-22.743-11.042 20.756-19.916-33.353-16.923 31.816-18.995-31.816-12.165 22.868-21.905-36.687-10.995 20.67-23.076-38.649-12.29 23.107-25.31-39.25-23.315 40.582-10.37-17.366-13.907 26.144-24.561-41.135-20.075 37.739-11.982-20.067-7.7 14.477-13.231-22.163-7.687 14.45-17.2-28.808-20.002 37.6-17.538-29.375-19.884 37.381-16.161-27.065-7.55 14.195-21.637-36.239-18.8 35.343-13.58-22.746-11.04 20.758-19.916-33.355-16.921 31.817-18.998-31.817-12.166 22.868-21.904-36.685-10.995 20.67-23.075-38.647-12.291 23.104-25.31-39.25-23.315 40.584-10.37-17.369-13.907 26.146-24.56-41.137-20.076 37.74-11.98-20.068-7.702 14.48-13.232-22.162-7.685 14.45-17.202-28.81-20.001 37.6-17.537-29.375-15.07 28.33-21.826-36.555-11.772 22.13-23.765-39.802-23.45 44.086.51 2.585-14.705-24.629-14.158 26.62-23.092-38.674-17.444 32.792-20.342-32.792-12.646 23.776-24.464-33.764-20.657 38.834-12.635-21.162-17.989 33.82-20.193-33.82-19.75 37.129-17.257-28.904-11.431 21.49-7.477-12.522-12.29 23.105-25.31-39.252-16.343 28.444-23.318-39.054-12.164 22.866-21.904-36.685-10.995 20.67-23.075-38.647-12.292 23.105-25.31-39.252-23.314 40.584-10.37-17.366-14.624 27.491-23.844-33.081-15.215 28.601-16.84-20.33-7.703 14.477-13.23-22.161-7.687 14.448-17.202-28.808-19.999 37.6-17.539-29.375-15.07 28.33-21.826-36.555-11.771 22.13-23.765-39.802-23.452 44.086-14.194-22.042-14.159 26.617-23.092-38.673-17.8 33.467-19.984-33.467-14.675 27.588-22.436-37.576-20.656 38.832-12.635-21.16-13 24.436-17.878-29.943-10.465 19.673-14.423-24.154-10.901 20.496-19.215-32.182-8.813 16.566-16.076-26.924-18.26 34.329-20.496-34.33-19.268 36.224-15.443-25.865-16.006 30.088-17.965-30.088-13.555 25.483-21.4-35.841-8.036 15.105-19.863-33.27-14.771 27.769-18.897-31.648-17.838 33.536-18.688-31.296-10.463 19.675-14.423-24.154-10.902 20.495-19.215-32.181-8.811 16.566-16.076-26.924-18.19 34.195-20.567-34.195-19.27 36.224-15.442-25.866-16.005 30.088-17.966-30.088-13.555 25.481-21.4-35.84-8.034 15.108-19.864-33.272-14.772 27.769-18.895-31.647-7.55 14.194-21.637-36.238-18.8 35.341-13.58-22.744-11.041 20.758-19.916-33.355-16.923 31.817-18.998-31.817-12.163 22.868-21.904-36.687-10.995 20.67-23.075-38.647-12.291 23.106-25.311-39.25-23.315 40.582-10.37-17.367-12.55 23.596-25.918-38.587-20.074 37.74-11.98-20.068-7.702 14.478-13.233-22.16-7.685 14.45-17.202-28.812-20 37.601-21.67-33.229-14.734 25.827-19.452-37.881-13.935 23.81-20.179-33.798-23.32 46.037-14.326-23.995-14.159 26.62-23.091-38.674-17.803 33.467-19.982-33.467-14.676 27.586L.424 364.28l-20.658 38.832-12.634-21.162-17.99 33.82-20.192-33.82-19.751 37.13-17.257-28.903-11.431 21.489-7.477-12.523-12.291 23.107-25.311-39.252-23.314 40.583-10.37-17.366-12.867 24.188-25.602-39.18-20.074 37.739-11.98-20.067-7.702 14.477-13.231-22.16-7.686 14.449-17.202-28.809-18.848 35.433-18.692-27.208-15.068 28.33-21.827-36.555-11.772 22.13-23.764-39.803-23.452 44.088-14.193-22.044-11.726 22.044-25.524-34.099-17.804 33.468-19.982-33.468-14.674 27.587-22.436-37.576-20.657 38.834-12.635-21.16-16.073 30.215-22.109-30.216-19.304 36.288-17.703-28.063-10.297 19.36-19.29-32.309-18.233 34.277-3.607 2.575-11.452-19.18-23.451 44.088v702.13h4509.723l-1.766-380.367z" fill="#1865F2"/></g></g></svg>
